<?xml version="1.0" encoding="UTF-8" standalone="no"?>
<!-- Created with Inkscape (http://www.inkscape.org/) -->

<svg
   xmlns:dc="http://purl.org/dc/elements/1.1/"
   xmlns:cc="http://creativecommons.org/ns#"
   xmlns:rdf="http://www.w3.org/1999/02/22-rdf-syntax-ns#"
   xmlns:svg="http://www.w3.org/2000/svg"
   xmlns="http://www.w3.org/2000/svg"
   xmlns:sodipodi="http://sodipodi.sourceforge.net/DTD/sodipodi-0.dtd"
   xmlns:inkscape="http://www.inkscape.org/namespaces/inkscape"
   version="1.1"
   id="svg2"
   xml:space="preserve"
   width="307.112"
   height="200"
   viewBox="0 0 307.112 200"
   sodipodi:docname="NIA_Logo.svg"
   inkscape:version="0.92.3 (2405546, 2018-03-11)"
   inkscape:export-filename="/home/opntec/git/techcul.org/img/NIA Logo.png"
   inkscape:export-xdpi="80"
   inkscape:export-ydpi="80"><metadata
     id="metadata8"><rdf:RDF><cc:Work
         rdf:about=""><dc:format>image/svg+xml</dc:format><dc:type
           rdf:resource="http://purl.org/dc/dcmitype/StillImage" /><dc:title></dc:title></cc:Work></rdf:RDF></metadata><defs
     id="defs6"><clipPath
       clipPathUnits="userSpaceOnUse"
       id="clipPath18"><path
         d="M 0,190.539 H 230.334 V 0 H 0 Z"
         id="path16"
         inkscape:connector-curvature="0" /></clipPath><clipPath
       clipPathUnits="userSpaceOnUse"
       id="clipPath34"><path
         d="M 78.36,91.541 C 67.888,83.307 59.024,70.942 61.551,57.569 v 0 c 2.764,5.527 8.481,5.828 14.297,5.838 v 0 l 16.96,0.032 c 12.588,0.018 16.448,7.848 14.018,18.562 v 0 c -0.747,-5.846 -6.12,-6.691 -12.266,-6.694 v 0 L 80.194,75.29 c 3.957,5.877 14.921,12.286 21.866,19.789 v 0 c -1.36,5.404 -3.991,8.402 -7.467,9.872 v 0 C 90.916,100.561 84.049,96.013 78.36,91.541"
         id="path32"
         inkscape:connector-curvature="0" /></clipPath><linearGradient
       x1="0"
       y1="0"
       x2="1"
       y2="0"
       gradientUnits="userSpaceOnUse"
       gradientTransform="matrix(17.345753,-29.30835,-29.30835,-17.345753,72.821228,92.33387)"
       spreadMethod="pad"
       id="linearGradient46"><stop
         style="stop-opacity:1;stop-color:#334885"
         offset="0"
         id="stop40" /><stop
         style="stop-opacity:1;stop-color:#334885"
         offset="0.0800018"
         id="stop42" /><stop
         style="stop-opacity:1;stop-color:#202857"
         offset="1"
         id="stop44" /></linearGradient><clipPath
       clipPathUnits="userSpaceOnUse"
       id="clipPath56"><path
         d="m 44.25,120.978 c 8.488,-0.068 13.12,-5.699 13.621,-12.813 v 0 -12.328 0 c 0,0 0,0 0,0 v 0 l 0.05,-26.599 c 1.689,7.137 5.903,14.179 12.365,20.564 v 0 6.035 l -0.01,10.726 c 0.004,10e-4 0.006,0.003 0.01,0.005 v 0 l -0.028,32.906 C 66.912,129.071 56.478,120.956 44.25,120.978"
         id="path54"
         inkscape:connector-curvature="0" /></clipPath><linearGradient
       x1="0"
       y1="0"
       x2="1"
       y2="0"
       gradientUnits="userSpaceOnUse"
       gradientTransform="matrix(10.181025,-37.330467,-37.330467,-10.181025,59.610374,120.78023)"
       spreadMethod="pad"
       id="linearGradient66"><stop
         style="stop-opacity:1;stop-color:#ee242d"
         offset="0"
         id="stop62" /><stop
         style="stop-opacity:1;stop-color:#8f121a"
         offset="1"
         id="stop64" /></linearGradient><clipPath
       clipPathUnits="userSpaceOnUse"
       id="clipPath76"><path
         d="M 0,190.539 H 230.334 V 0 H 0 Z"
         id="path74"
         inkscape:connector-curvature="0" /></clipPath></defs><sodipodi:namedview
     pagecolor="#ffffff"
     bordercolor="#666666"
     borderopacity="1"
     objecttolerance="10"
     gridtolerance="10"
     guidetolerance="10"
     inkscape:pageopacity="0"
     inkscape:pageshadow="2"
     inkscape:window-width="2560"
     inkscape:window-height="1412"
     id="namedview4"
     showgrid="false"
     inkscape:zoom="1.8578873"
     inkscape:cx="208.06441"
     inkscape:cy="14.754129"
     inkscape:window-x="0"
     inkscape:window-y="0"
     inkscape:window-maximized="1"
     inkscape:current-layer="g10" /><g
     id="g10"
     inkscape:groupmode="layer"
     inkscape:label="12th NIA Logo"
     transform="matrix(1.3333333,0,0,-1.3333333,0,200)"><g
       id="g1385"
       transform="matrix(1.5741297,0,0,1.5741297,-63.508839,-76.617495)"><g
         id="g12"><g
           clip-path="url(#clipPath18)"
           id="g14"><g
             transform="translate(106.7125,89.0981)"
             id="g20"><path
               inkscape:connector-curvature="0"
               id="path22"
               style="fill:#c39248;fill-opacity:1;fill-rule:evenodd;stroke:none"
               d="M 0,0 C -0.95,14.499 -7.773,21.331 -22.271,22.271 -7.777,23.173 -0.858,30.053 0,44.54 0.647,30.072 7.8,22.938 22.27,22.271 7.801,21.612 0.945,14.499 0,0" /></g><g
             transform="translate(74.0738,129.729)"
             id="g24"><path
               inkscape:connector-curvature="0"
               id="path26"
               style="fill:#33478a;fill-opacity:1;fill-rule:evenodd;stroke:none"
               d="m 0,0 c 8.784,4.242 20.451,2.976 27.642,-3.098 -1.042,-3.691 -3.707,-7.143 -7.312,-8.973 -2.419,2.552 -5.807,3.8 -9.544,3.656 C 5.1,-8.634 0.001,-13.05 0.001,-18.402 Z" /></g></g></g><g
         id="g28"><g
           clip-path="url(#clipPath34)"
           id="g30"><g
             id="g36"><g
               id="g38"><path
                 inkscape:connector-curvature="0"
                 id="path48"
                 style="fill:url(#linearGradient46);stroke:none"
                 d="M 78.36,91.541 C 67.888,83.307 59.024,70.942 61.551,57.569 v 0 c 2.764,5.527 8.481,5.828 14.297,5.838 v 0 l 16.96,0.032 c 12.588,0.018 16.448,7.848 14.018,18.562 v 0 c -0.747,-5.846 -6.12,-6.691 -12.266,-6.694 v 0 L 80.194,75.29 c 3.957,5.877 14.921,12.286 21.866,19.789 v 0 c -1.36,5.404 -3.991,8.402 -7.467,9.872 v 0 C 90.916,100.561 84.049,96.013 78.36,91.541" /></g></g></g></g><g
         id="g50"><g
           clip-path="url(#clipPath56)"
           id="g52"><g
             id="g58"><g
               id="g60"><path
                 inkscape:connector-curvature="0"
                 id="path68"
                 style="fill:url(#linearGradient66);stroke:none"
                 d="m 44.25,120.978 c 8.488,-0.068 13.12,-5.699 13.621,-12.813 v 0 -12.328 0 c 0,0 0,0 0,0 v 0 l 0.05,-26.599 c 1.689,7.137 5.903,14.179 12.365,20.564 v 0 6.035 l -0.01,10.726 c 0.004,10e-4 0.006,0.003 0.01,0.005 v 0 l -0.028,32.906 C 66.912,129.071 56.478,120.956 44.25,120.978" /></g></g></g></g><g
         id="g70"><g
           clip-path="url(#clipPath76)"
           id="g72"><g
             transform="translate(64.3815,55.7739)"
             id="g78"><path
               inkscape:connector-curvature="0"
               id="path80"
               style="fill:#202857;fill-opacity:1;fill-rule:nonzero;stroke:none"
               d="m 0,0 1.474,-0.993 -0.897,2.57 z m -0.353,-0.985 -0.456,-1.209 c -0.056,-0.145 -0.184,-0.297 -0.32,-0.297 h -0.56 c -0.225,0 -0.296,0.152 -0.242,0.289 l 1.947,5.109 c 0.04,0.096 0.152,0.192 0.28,0.192 h 0.56 c 0.122,0 0.249,-0.096 0.282,-0.192 L 3.019,-2.202 C 3.059,-2.314 2.986,-2.491 2.771,-2.491 H 2.339 c -0.137,0 -0.281,0.049 -0.368,0.104 z" /></g><g
             transform="translate(68.983,58.5766)"
             id="g82"><path
               inkscape:connector-curvature="0"
               id="path84"
               style="fill:#202857;fill-opacity:1;fill-rule:nonzero;stroke:none"
               d="m 0,0 c 0,0.176 0.129,0.296 0.296,0.296 h 0.625 c 0.081,0 0.2,-0.064 0.232,-0.12 L 3.188,-3.323 V 0 c 0,0.176 0.12,0.296 0.295,0.296 h 0.49 C 4.149,0.296 4.269,0.176 4.269,0 v -4.997 c 0,-0.161 -0.12,-0.297 -0.296,-0.297 H 3.308 c -0.088,0 -0.201,0.072 -0.233,0.12 l -1.986,3.403 v -3.226 c 0,-0.161 -0.119,-0.297 -0.296,-0.297 H 0.296 C 0.129,-5.294 0,-5.158 0,-4.997 Z" /></g><g
             transform="translate(75.1695,58.5766)"
             id="g86"><path
               inkscape:connector-curvature="0"
               id="path88"
               style="fill:#202857;fill-opacity:1;fill-rule:nonzero;stroke:none"
               d="m 0,0 c 0,0.176 0.129,0.296 0.296,0.296 h 0.625 c 0.081,0 0.2,-0.064 0.232,-0.12 L 3.188,-3.323 V 0 c 0,0.176 0.121,0.296 0.295,0.296 h 0.49 C 4.149,0.296 4.27,0.176 4.27,0 v -4.997 c 0,-0.161 -0.121,-0.297 -0.297,-0.297 H 3.309 c -0.089,0 -0.202,0.072 -0.234,0.12 L 1.09,-1.771 v -3.226 c 0,-0.161 -0.12,-0.297 -0.297,-0.297 H 0.296 C 0.129,-5.294 0,-5.158 0,-4.997 Z" /></g><g
             transform="translate(81.3561,58.5766)"
             id="g90"><path
               inkscape:connector-curvature="0"
               id="path92"
               style="fill:#202857;fill-opacity:1;fill-rule:nonzero;stroke:none"
               d="M 0,0 C 0,0.176 0.121,0.296 0.297,0.296 H 0.794 C 0.97,0.296 1.09,0.176 1.09,0 v -4.997 c 0,-0.161 -0.12,-0.297 -0.296,-0.297 H 0.297 C 0.121,-5.294 0,-5.158 0,-4.997 Z" /></g><g
             transform="translate(86.9371,53.4751)"
             id="g94"><path
               inkscape:connector-curvature="0"
               id="path96"
               style="fill:#202857;fill-opacity:1;fill-rule:nonzero;stroke:none"
               d="m 0,0 c -0.04,-0.112 -0.185,-0.192 -0.281,-0.192 h -0.528 c -0.104,0 -0.241,0.08 -0.281,0.192 l -1.625,5.006 c -0.064,0.2 0.064,0.391 0.279,0.391 h 0.53 c 0.144,0 0.248,-0.095 0.279,-0.191 l 1.09,-3.725 1.144,3.725 C 0.64,5.302 0.729,5.397 0.889,5.397 h 0.497 c 0.216,0 0.351,-0.191 0.279,-0.391 z" /></g><g
             transform="translate(90.3844,58.5766)"
             id="g98"><path
               inkscape:connector-curvature="0"
               id="path100"
               style="fill:#202857;fill-opacity:1;fill-rule:nonzero;stroke:none"
               d="m 0,0 c 0,0.176 0.129,0.296 0.288,0.296 h 2.908 c 0.16,0 0.296,-0.12 0.296,-0.296 v -0.433 c 0,-0.16 -0.136,-0.288 -0.296,-0.288 H 1.082 v -1.193 h 1.665 c 0.161,0 0.296,-0.136 0.296,-0.297 v -0.432 c 0,-0.16 -0.135,-0.296 -0.296,-0.296 H 1.082 v -1.33 h 2.194 c 0.176,0 0.296,-0.135 0.296,-0.295 v -0.433 c 0,-0.161 -0.12,-0.297 -0.296,-0.297 H 0.288 C 0.129,-5.294 0,-5.158 0,-4.997 Z" /></g><g
             transform="translate(96.8053,56.2788)"
             id="g102"><path
               inkscape:connector-curvature="0"
               id="path104"
               style="fill:#202857;fill-opacity:1;fill-rule:nonzero;stroke:none"
               d="m 0,0 h 0.841 c 0.68,0 0.977,0.24 0.977,0.8 0,0.56 -0.457,0.777 -0.969,0.777 H 0 Z M 1.458,-0.945 2.923,-2.699 C 3.067,-2.876 2.906,-2.996 2.683,-2.996 H 2.025 c -0.111,0 -0.231,0.089 -0.319,0.192 L 0,-0.85 V -2.699 C 0,-2.86 -0.137,-2.996 -0.297,-2.996 h -0.496 c -0.168,0 -0.297,0.136 -0.297,0.297 v 4.997 c 0,0.176 0.129,0.296 0.297,0.296 h 1.746 c 1.338,0 1.945,-0.689 1.945,-1.802 0,-0.824 -0.456,-1.617 -1.44,-1.737" /></g><g
             transform="translate(101.3746,54.6528)"
             id="g106"><path
               inkscape:connector-curvature="0"
               id="path108"
               style="fill:#202857;fill-opacity:1;fill-rule:nonzero;stroke:none"
               d="m 0,0 0.433,0.336 c 0.111,0.088 0.24,0.04 0.343,-0.088 0.281,-0.352 0.833,-0.681 1.298,-0.681 0.529,0 0.865,0.088 0.865,0.505 0,0.92 -2.691,0.824 -2.691,2.651 0,0.913 0.744,1.586 1.882,1.586 0.641,0 1.209,-0.305 1.626,-0.721 C 3.788,3.556 3.804,3.516 3.804,3.476 V 2.563 C 3.804,2.402 3.667,2.267 3.508,2.267 H 3.067 c -0.16,0 -0.296,0.135 -0.296,0.296 v 0.528 c -0.136,0.112 -0.401,0.2 -0.657,0.2 -0.432,0 -0.856,-0.144 -0.856,-0.568 0,-1.034 2.77,-0.849 2.77,-2.604 0,-0.952 -0.729,-1.569 -1.986,-1.569 -0.881,0 -1.657,0.513 -2.034,1.097 C -0.088,-0.2 -0.128,-0.104 0,0" /></g><g
             transform="translate(108.5953,55.7739)"
             id="g110"><path
               inkscape:connector-curvature="0"
               id="path112"
               style="fill:#202857;fill-opacity:1;fill-rule:nonzero;stroke:none"
               d="M 0,0 1.473,-0.993 0.576,1.577 Z M -0.354,-0.985 -0.81,-2.194 c -0.056,-0.145 -0.183,-0.297 -0.32,-0.297 h -0.56 c -0.224,0 -0.296,0.152 -0.241,0.289 l 1.947,5.109 c 0.039,0.096 0.151,0.192 0.28,0.192 h 0.56 c 0.121,0 0.248,-0.096 0.281,-0.192 L 3.019,-2.202 C 3.059,-2.314 2.986,-2.491 2.771,-2.491 H 2.338 c -0.136,0 -0.28,0.049 -0.368,0.104 z" /></g><g
             transform="translate(114.2848,56.2788)"
             id="g114"><path
               inkscape:connector-curvature="0"
               id="path116"
               style="fill:#202857;fill-opacity:1;fill-rule:nonzero;stroke:none"
               d="m 0,0 h 0.841 c 0.68,0 0.977,0.24 0.977,0.8 0,0.56 -0.457,0.777 -0.969,0.777 H 0 Z M 1.458,-0.945 2.923,-2.699 C 3.067,-2.876 2.906,-2.996 2.683,-2.996 H 2.025 c -0.111,0 -0.231,0.089 -0.319,0.192 L 0,-0.85 V -2.699 C 0,-2.86 -0.137,-2.996 -0.297,-2.996 h -0.496 c -0.168,0 -0.297,0.136 -0.297,0.297 v 4.997 c 0,0.176 0.129,0.296 0.297,0.296 h 1.746 c 1.338,0 1.945,-0.689 1.945,-1.802 0,-0.824 -0.456,-1.617 -1.44,-1.737" /></g><g
             transform="translate(120.1998,55.6059)"
             id="g118"><path
               inkscape:connector-curvature="0"
               id="path120"
               style="fill:#202857;fill-opacity:1;fill-rule:nonzero;stroke:none"
               d="m 0,0 -1.802,2.811 c -0.136,0.215 -0.008,0.456 0.24,0.456 h 0.569 c 0.072,0 0.191,-0.04 0.248,-0.128 l 1.281,-2.05 1.321,2.05 c 0.048,0.088 0.169,0.128 0.249,0.128 h 0.538 c 0.247,0 0.383,-0.248 0.247,-0.456 L 1.081,0 v -2.026 c 0,-0.162 -0.137,-0.297 -0.296,-0.297 H 0.296 C 0.12,-2.323 0,-2.188 0,-2.026 Z" /></g><g
             transform="translate(116.9274,68.686)"
             id="g122"><path
               inkscape:connector-curvature="0"
               id="path124"
               style="fill:#202857;fill-opacity:1;fill-rule:nonzero;stroke:none"
               d="m 0,0 h -0.918 v 1 c 0,0.136 -0.031,0.236 -0.093,0.296 -0.056,0.061 -0.156,0.072 -0.302,0.038 L -1.785,1.239 C -1.886,1.213 -1.983,1.176 -2.067,1.134 -2.105,1.111 -2.163,1.06 -2.163,0.895 V 0 h -0.394 c -0.201,0 -0.262,-0.044 -0.279,-0.062 -0.015,-0.017 -0.051,-0.077 -0.051,-0.246 v -0.373 c 0,-0.098 0.017,-0.173 0.049,-0.222 0.016,-0.026 0.051,-0.084 0.212,-0.084 h 0.439 v -3.171 c 0,-0.179 0.015,-0.352 0.045,-0.515 0.036,-0.16 0.101,-0.305 0.2,-0.438 0.09,-0.132 0.222,-0.24 0.397,-0.325 0.168,-0.076 0.39,-0.115 0.658,-0.115 0.203,0 0.395,0.012 0.567,0.034 0.218,0.028 0.32,0.055 0.366,0.074 h 0.002 c 0.001,0 0.025,0.031 0.038,0.153 0.007,0.111 0.003,0.23 -0.012,0.346 -0.008,0.123 -0.026,0.231 -0.053,0.332 l -0.05,0.106 c -0.01,0.01 -0.027,0.012 -0.041,0.012 -0.087,-0.022 -0.173,-0.038 -0.23,-0.044 -0.044,-0.01 -0.117,-0.013 -0.237,-0.013 -0.092,0 -0.169,0.024 -0.23,0.072 -0.083,0.095 -0.116,0.21 -0.116,0.367 v 3.113 h 0.871 c 0.142,0 0.237,0.028 0.266,0.077 0.045,0.065 0.064,0.139 0.064,0.23 v 0.373 c 0,0.098 -0.019,0.176 -0.058,0.233 C 0.215,-0.01 0.077,0 0,0" /></g><g
             transform="translate(122.7897,68.3481)"
             id="g126"><path
               inkscape:connector-curvature="0"
               id="path128"
               style="fill:#202857;fill-opacity:1;fill-rule:nonzero;stroke:none"
               d="M 0,0 V 0.001 C -0.139,0.142 -0.311,0.246 -0.508,0.309 -0.704,0.366 -0.924,0.396 -1.159,0.396 -1.515,0.396 -1.812,0.348 -2.046,0.254 -2.214,0.182 -2.37,0.092 -2.509,-0.012 L -2.707,-0.159 V 1.91 c 0,0.222 -0.046,0.306 -0.073,0.336 -0.045,0.04 -0.127,0.065 -0.235,0.065 H -3.621 C -3.762,2.311 -3.852,2.279 -3.889,2.219 -3.939,2.143 -3.964,2.041 -3.964,1.91 v -6.687 c 0,-0.201 0.037,-0.292 0.069,-0.333 0.043,-0.072 0.133,-0.103 0.274,-0.103 h 0.606 c 0.175,0 0.219,0.07 0.233,0.093 0.029,0.045 0.063,0.141 0.063,0.343 v 2.999 c 0,0.108 0.022,0.221 0.065,0.344 0.043,0.123 0.11,0.237 0.2,0.335 0.086,0.102 0.198,0.188 0.332,0.25 0.128,0.07 0.285,0.106 0.461,0.106 0.319,0 0.551,-0.092 0.684,-0.273 0.124,-0.179 0.187,-0.384 0.187,-0.61 v -3.14 c 0,-0.21 0.04,-0.313 0.072,-0.362 0.042,-0.056 0.124,-0.085 0.248,-0.085 h 0.641 c 0.206,0 0.235,0.077 0.246,0.106 0.03,0.066 0.061,0.187 0.061,0.435 v 3.267 c 0,0.327 -0.043,0.611 -0.131,0.843 C 0.26,-0.331 0.144,-0.143 0,0" /></g><g
             transform="translate(131.2027,65.9565)"
             id="g130"><path
               inkscape:connector-curvature="0"
               id="path132"
               style="fill:#c39248;fill-opacity:1;fill-rule:nonzero;stroke:none"
               d="m 0,0 c -0.008,1.514 1.117,2.912 2.831,2.912 0.712,0 1.401,-0.323 1.877,-0.72 C 4.742,2.161 4.765,2.129 4.765,2.079 V 1.15 c 0,-0.163 -0.136,-0.3 -0.299,-0.3 H 4.021 c -0.163,0 -0.298,0.137 -0.298,0.3 V 1.618 C 3.471,1.812 3.188,1.885 2.831,1.885 1.756,1.885 1.101,1.134 1.101,0 c 0,-1.011 0.655,-1.884 1.73,-1.884 0.495,0 0.867,0.282 1.095,0.589 0.087,0.121 0.233,0.18 0.346,0.09 L 4.708,-1.568 C 4.838,-1.675 4.79,-1.771 4.702,-1.925 4.443,-2.361 3.819,-2.904 2.831,-2.904 1.199,-2.904 0.018,-1.731 0,0" /></g><g
             transform="translate(138.483,66.1587)"
             id="g134"><path
               inkscape:connector-curvature="0"
               id="path136"
               style="fill:#c39248;fill-opacity:1;fill-rule:nonzero;stroke:none"
               d="m 0,0 h 0.85 c 0.689,0 0.988,0.244 0.988,0.811 0,0.565 -0.462,0.785 -0.98,0.785 H 0 Z M 1.473,-0.954 2.954,-2.727 C 3.099,-2.904 2.938,-3.025 2.71,-3.025 H 2.049 c -0.115,0 -0.237,0.089 -0.324,0.194 L 0,-0.857 v -1.87 C 0,-2.888 -0.138,-3.025 -0.298,-3.025 H -0.8 c -0.171,0 -0.3,0.137 -0.3,0.298 v 5.049 c 0,0.179 0.129,0.3 0.3,0.3 h 1.763 c 1.352,0 1.967,-0.695 1.967,-1.82 0,-0.833 -0.462,-1.635 -1.457,-1.756" /></g><g
             transform="translate(144.3981,65.6499)"
             id="g138"><path
               inkscape:connector-curvature="0"
               id="path140"
               style="fill:#c39248;fill-opacity:1;fill-rule:nonzero;stroke:none"
               d="M 0,0 1.488,-1.003 0.582,1.593 Z M -0.354,-0.996 -0.816,-2.218 C -0.873,-2.361 -1.002,-2.517 -1.14,-2.517 h -0.566 c -0.228,0 -0.301,0.156 -0.244,0.293 l 1.967,5.162 c 0.042,0.095 0.154,0.193 0.284,0.193 h 0.565 c 0.121,0 0.251,-0.098 0.284,-0.193 l 1.9,-5.162 C 3.092,-2.339 3.019,-2.517 2.8,-2.517 H 2.363 c -0.137,0 -0.284,0.049 -0.371,0.105 z" /></g><g
             transform="translate(148.6197,68.4809)"
             id="g142"><path
               inkscape:connector-curvature="0"
               id="path144"
               style="fill:#c39248;fill-opacity:1;fill-rule:nonzero;stroke:none"
               d="m 0,0 c 0,0.179 0.138,0.3 0.301,0.3 h 2.927 c 0.179,0 0.3,-0.121 0.3,-0.3 v -0.437 c 0,-0.161 -0.121,-0.29 -0.3,-0.29 H 1.101 v -1.449 h 1.513 c 0.177,0 0.298,-0.137 0.298,-0.299 v -0.438 c 0,-0.16 -0.121,-0.299 -0.298,-0.299 H 1.101 v -1.837 c 0,-0.161 -0.139,-0.299 -0.299,-0.299 H 0.301 C 0.138,-5.348 0,-5.21 0,-5.049 Z" /></g><g
             transform="translate(154.6471,67.7544)"
             id="g146"><path
               inkscape:connector-curvature="0"
               id="path148"
               style="fill:#c39248;fill-opacity:1;fill-rule:nonzero;stroke:none"
               d="m 0,0 h -1.334 c -0.163,0 -0.301,0.129 -0.301,0.29 v 0.437 c 0,0.178 0.138,0.299 0.301,0.299 h 3.811 c 0.176,0 0.297,-0.121 0.297,-0.299 V 0.29 C 2.774,0.129 2.653,0 2.477,0 H 1.101 v -4.322 c 0,-0.161 -0.122,-0.299 -0.299,-0.299 H 0.299 C 0.138,-4.621 0,-4.483 0,-4.322 Z" /></g><g
             transform="translate(158.6119,68.4809)"
             id="g150"><path
               inkscape:connector-curvature="0"
               id="path152"
               style="fill:#c39248;fill-opacity:1;fill-rule:nonzero;stroke:none"
               d="M 0,0 C 0,0.179 0.121,0.3 0.301,0.3 H 0.802 C 0.979,0.3 1.101,0.179 1.101,0 v -5.049 c 0,-0.161 -0.122,-0.299 -0.299,-0.299 H 0.301 C 0.121,-5.348 0,-5.21 0,-5.049 Z" /></g><g
             transform="translate(161.2174,68.4809)"
             id="g154"><path
               inkscape:connector-curvature="0"
               id="path156"
               style="fill:#c39248;fill-opacity:1;fill-rule:nonzero;stroke:none"
               d="m 0,0 c 0,0.179 0.13,0.3 0.301,0.3 h 0.63 C 1.013,0.3 1.134,0.235 1.165,0.179 L 3.22,-3.357 V 0 c 0,0.179 0.123,0.3 0.3,0.3 h 0.493 c 0.179,0 0.3,-0.121 0.3,-0.3 v -5.049 c 0,-0.161 -0.121,-0.299 -0.3,-0.299 h -0.67 c -0.09,0 -0.203,0.074 -0.237,0.121 l -2.005,3.439 v -3.261 c 0,-0.161 -0.122,-0.299 -0.299,-0.299 H 0.301 C 0.13,-5.348 0,-5.21 0,-5.049 Z" /></g><g
             transform="translate(171.4977,68.23)"
             id="g158"><path
               inkscape:connector-curvature="0"
               id="path160"
               style="fill:#c39248;fill-opacity:1;fill-rule:nonzero;stroke:none"
               d="M 0,0 C 0,-0.009 0,-0.009 0.009,-0.009 L 0.025,-0.031 C 0.033,-0.04 0.042,-0.048 0.042,-0.057 l 0.017,-0.039 v -1.027 c 0,-0.163 -0.138,-0.301 -0.301,-0.301 h -0.445 c -0.161,0 -0.298,0.138 -0.298,0.301 v 0.532 c -0.22,0.138 -0.624,0.202 -0.956,0.202 -1.076,0 -1.732,-0.751 -1.732,-1.884 0,-1.011 0.656,-1.884 1.732,-1.884 0.227,0 0.745,0.04 0.93,0.178 v 0.873 h -0.712 c -0.169,0 -0.298,0.121 -0.298,0.3 v 0.428 c 0,0.178 0.129,0.299 0.298,0.299 h 1.514 c 0.169,0 0.29,-0.121 0.29,-0.299 v -1.967 c 0,-0.112 -0.081,-0.194 -0.138,-0.251 -0.402,-0.345 -1.196,-0.582 -1.884,-0.582 -1.633,0 -2.815,1.173 -2.831,2.905 -0.009,1.513 1.117,2.912 2.831,2.912 C -1.205,0.639 -0.468,0.389 0,0" /></g><g
             transform="translate(131.5162,58.6138)"
             id="g162"><path
               inkscape:connector-curvature="0"
               id="path164"
               style="fill:#c39248;fill-opacity:1;fill-rule:nonzero;stroke:none"
               d="M 0,0 C 0,0.181 0.122,0.302 0.302,0.302 H 0.806 C 0.983,0.302 1.105,0.181 1.105,0 v -5.069 c 0,-0.162 -0.122,-0.3 -0.299,-0.3 H 0.302 C 0.122,-5.369 0,-5.231 0,-5.069 Z" /></g><g
             transform="translate(134.1334,58.6138)"
             id="g166"><path
               inkscape:connector-curvature="0"
               id="path168"
               style="fill:#c39248;fill-opacity:1;fill-rule:nonzero;stroke:none"
               d="m 0,0 c 0,0.181 0.13,0.302 0.302,0.302 h 0.633 c 0.082,0 0.203,-0.065 0.235,-0.121 L 3.232,-3.371 V 0 c 0,0.181 0.124,0.302 0.302,0.302 H 4.029 C 4.21,0.302 4.331,0.181 4.331,0 v -5.069 c 0,-0.162 -0.121,-0.3 -0.302,-0.3 H 3.356 c -0.089,0 -0.203,0.073 -0.237,0.121 l -2.015,3.453 v -3.274 c 0,-0.162 -0.121,-0.3 -0.299,-0.3 H 0.302 C 0.13,-5.369 0,-5.231 0,-5.069 Z" /></g><g
             transform="translate(139.983,58.6138)"
             id="g170"><path
               inkscape:connector-curvature="0"
               id="path172"
               style="fill:#c39248;fill-opacity:1;fill-rule:nonzero;stroke:none"
               d="m 0,0 c 0,0.181 0.13,0.302 0.302,0.302 h 0.633 c 0.082,0 0.204,-0.065 0.235,-0.121 L 3.232,-3.371 V 0 c 0,0.181 0.124,0.302 0.303,0.302 H 4.029 C 4.21,0.302 4.331,0.181 4.331,0 v -5.069 c 0,-0.162 -0.121,-0.3 -0.302,-0.3 H 3.356 c -0.089,0 -0.203,0.073 -0.237,0.121 l -2.015,3.453 v -3.274 c 0,-0.162 -0.121,-0.3 -0.299,-0.3 H 0.302 C 0.13,-5.369 0,-5.231 0,-5.069 Z" /></g><g
             transform="translate(146.6188,56.0786)"
             id="g174"><path
               inkscape:connector-curvature="0"
               id="path176"
               style="fill:#c39248;fill-opacity:1;fill-rule:nonzero;stroke:none"
               d="M 0,0 C 0,-1.015 0.658,-1.893 1.738,-1.893 2.747,-1.893 3.47,-1.136 3.47,0 3.47,1.139 2.747,1.894 1.738,1.894 0.658,1.894 0,1.139 0,0 M 1.738,2.925 C 3.453,2.925 4.598,1.521 4.583,0 4.566,-1.729 3.38,-2.916 1.738,-2.916 0.099,-2.916 -1.088,-1.738 -1.104,0 -1.113,1.521 0.017,2.925 1.738,2.925" /></g><g
             transform="translate(155.0201,53.4389)"
             id="g178"><path
               inkscape:connector-curvature="0"
               id="path180"
               style="fill:#c39248;fill-opacity:1;fill-rule:nonzero;stroke:none"
               d="m 0,0 c -0.04,-0.113 -0.187,-0.194 -0.285,-0.194 h -0.534 c -0.108,0 -0.246,0.081 -0.285,0.194 L -2.755,5.078 C -2.82,5.282 -2.69,5.477 -2.47,5.477 h 0.537 c 0.147,0 0.251,-0.099 0.283,-0.195 L -0.545,1.504 0.616,5.282 C 0.65,5.378 0.74,5.477 0.901,5.477 h 0.504 c 0.22,0 0.359,-0.195 0.285,-0.399 z" /></g><g
             transform="translate(159.7086,55.771)"
             id="g182"><path
               inkscape:connector-curvature="0"
               id="path184"
               style="fill:#c39248;fill-opacity:1;fill-rule:nonzero;stroke:none"
               d="M 0,0 1.495,-1.007 0.585,1.602 Z M -0.356,-0.998 -0.82,-2.227 c -0.057,-0.145 -0.187,-0.299 -0.326,-0.299 h -0.567 c -0.228,0 -0.303,0.154 -0.246,0.291 L 0.017,2.95 C 0.059,3.046 0.172,3.145 0.302,3.145 H 0.87 c 0.121,0 0.251,-0.099 0.285,-0.195 L 3.063,-2.235 C 3.104,-2.349 3.031,-2.526 2.812,-2.526 H 2.373 c -0.139,0 -0.285,0.047 -0.373,0.104 z" /></g><g
             transform="translate(165.2643,57.8843)"
             id="g186"><path
               inkscape:connector-curvature="0"
               id="path188"
               style="fill:#c39248;fill-opacity:1;fill-rule:nonzero;stroke:none"
               d="m 0,0 h -1.34 c -0.163,0 -0.302,0.13 -0.302,0.291 v 0.438 c 0,0.181 0.139,0.302 0.302,0.302 h 3.827 c 0.178,0 0.3,-0.121 0.3,-0.302 V 0.291 C 2.787,0.13 2.665,0 2.487,0 H 1.105 v -4.34 c 0,-0.162 -0.122,-0.3 -0.299,-0.3 H 0.3 c -0.161,0 -0.3,0.138 -0.3,0.3 z" /></g><g
             transform="translate(169.2457,58.6138)"
             id="g190"><path
               inkscape:connector-curvature="0"
               id="path192"
               style="fill:#c39248;fill-opacity:1;fill-rule:nonzero;stroke:none"
               d="M 0,0 C 0,0.181 0.122,0.302 0.303,0.302 H 0.806 C 0.983,0.302 1.105,0.181 1.105,0 v -5.069 c 0,-0.162 -0.122,-0.3 -0.299,-0.3 H 0.303 C 0.122,-5.369 0,-5.231 0,-5.069 Z" /></g><g
             transform="translate(172.649,56.0786)"
             id="g194"><path
               inkscape:connector-curvature="0"
               id="path196"
               style="fill:#c39248;fill-opacity:1;fill-rule:nonzero;stroke:none"
               d="M 0,0 C 0,-1.015 0.658,-1.893 1.738,-1.893 2.747,-1.893 3.47,-1.136 3.47,0 3.47,1.139 2.747,1.894 1.738,1.894 0.658,1.894 0,1.139 0,0 M 1.738,2.925 C 3.453,2.925 4.598,1.521 4.583,0 4.566,-1.729 3.38,-2.916 1.738,-2.916 0.099,-2.916 -1.088,-1.738 -1.104,0 -1.113,1.521 0.017,2.925 1.738,2.925" /></g><g
             transform="translate(178.4342,58.6138)"
             id="g198"><path
               inkscape:connector-curvature="0"
               id="path200"
               style="fill:#c39248;fill-opacity:1;fill-rule:nonzero;stroke:none"
               d="m 0,0 c 0,0.181 0.13,0.302 0.302,0.302 h 0.633 c 0.082,0 0.203,-0.065 0.235,-0.121 L 3.234,-3.371 V 0 c 0,0.181 0.122,0.302 0.3,0.302 H 4.029 C 4.208,0.302 4.331,0.181 4.331,0 v -5.069 c 0,-0.162 -0.123,-0.3 -0.302,-0.3 H 3.356 c -0.089,0 -0.203,0.073 -0.237,0.121 l -2.015,3.453 v -3.274 c 0,-0.162 -0.121,-0.3 -0.299,-0.3 H 0.302 C 0.13,-5.369 0,-5.231 0,-5.069 Z" /></g><g
             transform="translate(171.2994,101.6655)"
             id="g202"><path
               inkscape:connector-curvature="0"
               id="path204"
               style="fill:#255299;fill-opacity:1;fill-rule:nonzero;stroke:none"
               d="m 0,0 -6.434,-10.636 h -4.481 c 0,0 7.828,13.061 7.981,13.357 0.345,0.627 -0.07,1.089 -0.07,1.089 h 5.861 l 8.609,-14.446 H 6.247 c 0,0 0.499,0.442 0.066,1.155 C 6.122,-9.159 0.549,0 0.549,0 0.549,0 0.419,0.265 0.276,0.265 0.141,0.265 0,0 0,0" /></g><g
             transform="translate(140.3727,105.52)"
             id="g206"><path
               inkscape:connector-curvature="0"
               id="path208"
               style="fill:#255299;fill-opacity:1;fill-rule:nonzero;stroke:none"
               d="M 0,0 C 0,0 0.402,-0.507 0.111,-1.105 0.007,-1.337 -4.66,-9.034 -4.66,-9.034 c 0,0 -0.147,-0.264 -0.41,-0.258 -0.268,0 -0.395,0.235 -0.395,0.235 l -5.539,9.012 h -6.08 c 0,0 0.43,-0.462 0.111,-1.06 -0.152,-0.294 -7.994,-13.385 -7.994,-13.385 h 4.462 l 6.352,10.552 c 0,0 0.144,0.25 0.283,0.25 0.138,0 0.28,-0.248 0.28,-0.248 l 6.196,-9.865 c 0,0 0.22,-0.318 0.551,-0.502 0.441,-0.211 0.92,-0.187 0.92,-0.187 h 2.427 c 0,0 0.219,0.389 0.453,0.78 C -2.845,-13.37 5.174,0 5.174,0 Z" /></g><g
             transform="translate(117.5856,87.3393)"
             id="g210"><path
               inkscape:connector-curvature="0"
               id="path212"
               style="fill:#255299;fill-opacity:1;fill-rule:nonzero;stroke:none"
               d="m 0,0 c 0.11,-0.13 0.183,-0.291 0.183,-0.484 v -2.283 h -0.435 v 1.736 c -0.194,-0.145 -0.526,-0.216 -0.895,-0.289 -0.312,-0.076 -0.595,-0.266 -0.571,-0.619 0.036,-0.437 0.543,-0.571 1.067,-0.484 l -0.232,-0.344 c -0.739,-0.087 -1.297,0.229 -1.297,0.845 0,0.461 0.404,0.799 0.918,0.912 0.411,0.091 0.989,0.15 0.989,0.567 0,0.28 -0.279,0.495 -0.631,0.495 -0.396,0 -0.658,-0.229 -0.686,-0.505 h -0.489 c 0.066,0.453 0.535,0.807 1.15,0.807 0.337,0 0.565,-0.085 0.681,-0.128 C -0.1,0.175 0.173,0.308 0.11,0.552 H 0.627 C 0.6,0.237 0.328,0.052 0,0" /></g><g
             transform="translate(120.2262,84.5727)"
             id="g214"><path
               inkscape:connector-curvature="0"
               id="path216"
               style="fill:#255299;fill-opacity:1;fill-rule:nonzero;stroke:none"
               d="m 0,0 v 2.122 c 0,0.423 -0.173,0.696 -0.597,0.696 -0.362,0 -0.596,-0.261 -0.596,-0.505 h -0.449 c 0.035,0.402 0.424,0.807 1.038,0.807 0.675,0 1.04,-0.333 1.04,-0.931 L 0.436,0 Z m -3.021,4.014 c -0.1,0 -0.189,-0.063 -0.189,-0.174 0,-0.109 0.089,-0.179 0.189,-0.179 0.098,0 0.189,0.07 0.189,0.179 0,0.111 -0.091,0.174 -0.189,0.174 m 0,-0.585 c -0.264,0 -0.477,0.164 -0.477,0.411 0,0.249 0.213,0.412 0.477,0.412 0.266,0 0.477,-0.163 0.477,-0.412 0,-0.247 -0.211,-0.411 -0.477,-0.411" /></g><g
             transform="translate(123.8902,84.5727)"
             id="g218"><path
               inkscape:connector-curvature="0"
               id="path220"
               style="fill:#255299;fill-opacity:1;fill-rule:nonzero;stroke:none"
               d="m 0,0 c -0.089,0.062 -0.137,0.139 -0.137,0.263 v 0.164 c -0.091,-0.189 -0.328,-0.468 -0.882,-0.468 -0.549,0 -1.016,0.348 -1.016,0.977 v 2.152 h 0.434 V 1.025 c 0,-0.497 0.277,-0.754 0.73,-0.754 0.448,0 0.734,0.313 0.734,0.732 V 3.088 H 0.3 V 0.357 C 0.3,0.171 0.397,0.081 0.521,0 Z" /></g><g
             transform="translate(123.5875,88.0014)"
             id="g222"><path
               inkscape:connector-curvature="0"
               id="path224"
               style="fill:#255299;fill-opacity:1;fill-rule:nonzero;stroke:none"
               d="M 0,0 V 0.627 H 0.439 V 0.305 H 1.813 V 0 Z" /></g><g
             transform="translate(127.484,84.5727)"
             id="g226"><path
               inkscape:connector-curvature="0"
               id="path228"
               style="fill:#255299;fill-opacity:1;fill-rule:nonzero;stroke:none"
               d="m 0,0 v 2.175 c 0,0.37 -0.285,0.643 -0.722,0.643 -0.395,0 -0.642,-0.228 -0.741,-0.428 L -1.142,2.175 C -1.298,2.135 -1.463,1.987 -1.463,1.79 V 0 h -0.438 v 1.739 c 0,0.223 0.177,0.363 0.284,0.401 l -0.339,0.22 c 0.124,0.371 0.567,0.76 1.234,0.76 0.661,0 1.164,-0.353 1.164,-0.924 L 0.442,0 Z" /></g><g
             transform="translate(130.5406,84.5727)"
             id="g230"><path
               inkscape:connector-curvature="0"
               id="path232"
               style="fill:#255299;fill-opacity:1;fill-rule:nonzero;stroke:none"
               d="m 0,0 h -0.902 l -0.677,2.973 0.416,0.115 0.642,-2.781 h 0.356 c 0.471,0 0.622,0.325 0.622,1.317 0,0.98 -0.194,1.15 -0.715,1.15 h -0.244 l 0.211,0.314 h 0.272 c 0.78,0 0.912,-0.474 0.912,-1.444 C 0.893,0.494 0.65,0 0,0" /></g><g
             transform="translate(134.1432,84.5727)"
             id="g234"><path
               inkscape:connector-curvature="0"
               id="path236"
               style="fill:#255299;fill-opacity:1;fill-rule:nonzero;stroke:none"
               d="m 0,0 v 2.122 c 0,0.423 -0.173,0.696 -0.588,0.696 -0.373,0 -0.605,-0.261 -0.605,-0.505 h -0.45 c 0.038,0.402 0.422,0.807 1.042,0.807 0.678,0 1.037,-0.333 1.037,-0.931 L 0.436,0 Z" /></g><g
             transform="translate(137.8121,84.5727)"
             id="g238"><path
               inkscape:connector-curvature="0"
               id="path240"
               style="fill:#255299;fill-opacity:1;fill-rule:nonzero;stroke:none"
               d="m 0,0 c -0.091,0.062 -0.137,0.139 -0.137,0.263 v 0.164 c -0.091,-0.189 -0.331,-0.468 -0.878,-0.468 -0.554,0 -1.024,0.348 -1.024,0.977 v 2.152 h 0.435 V 1.025 c 0,-0.497 0.281,-0.754 0.734,-0.754 0.445,0 0.733,0.313 0.733,0.732 V 3.088 H 0.302 V 0.357 C 0.302,0.171 0.394,0.081 0.52,0 Z" /></g><g
             transform="translate(141.3424,84.5727)"
             id="g242"><path
               inkscape:connector-curvature="0"
               id="path244"
               style="fill:#255299;fill-opacity:1;fill-rule:nonzero;stroke:none"
               d="m 0,0 c -0.092,0.062 -0.14,0.139 -0.14,0.263 v 0.164 c -0.09,-0.189 -0.331,-0.468 -0.881,-0.468 -0.546,0 -1.022,0.348 -1.022,0.977 v 2.152 h 0.442 V 1.025 c 0,-0.497 0.276,-0.754 0.73,-0.754 0.444,0 0.731,0.313 0.731,0.732 V 3.088 H 0.295 V 0.357 C 0.295,0.171 0.401,0.081 0.521,0 Z" /></g><g
             transform="translate(143.8463,84.5317)"
             id="g246"><path
               inkscape:connector-curvature="0"
               id="path248"
               style="fill:#255299;fill-opacity:1;fill-rule:nonzero;stroke:none"
               d="m 0,0 c -0.636,0 -1.094,0.335 -1.138,0.886 h 0.451 C -0.643,0.497 -0.354,0.312 0,0.312 c 0.484,0 0.751,0.345 0.751,1.27 0,0.924 -0.267,1.277 -0.751,1.277 -0.306,0 -0.567,-0.196 -0.656,-0.505 H -1.11 C -1.02,2.828 -0.561,3.161 0,3.161 0.772,3.161 1.192,2.706 1.192,1.582 1.192,0.448 0.772,0 0,0" /></g><g
             transform="translate(143.1012,88.0014)"
             id="g250"><path
               inkscape:connector-curvature="0"
               id="path252"
               style="fill:#255299;fill-opacity:1;fill-rule:nonzero;stroke:none"
               d="M 0,0 V 0.627 H 0.439 V 0.305 H 1.813 V 0 Z" /></g><g
             transform="translate(148.0768,84.5727)"
             id="g254"><path
               inkscape:connector-curvature="0"
               id="path256"
               style="fill:#255299;fill-opacity:1;fill-rule:nonzero;stroke:none"
               d="m 0,0 v 2.323 c 0,0.246 -0.138,0.396 -0.249,0.429 -0.097,-0.172 -0.271,-0.3 -0.536,-0.3 -0.255,0 -0.437,0.128 -0.527,0.3 C -1.425,2.719 -1.559,2.569 -1.559,2.323 V 0.67 l 0.767,1.136 h -0.476 l 0.137,0.308 h 0.785 V 1.806 L -1.559,0 H -2 v 2.39 c 0,0.419 0.327,0.73 0.829,0.73 0,-0.151 0.143,-0.327 0.386,-0.327 0.256,0 0.397,0.176 0.397,0.327 0.499,0 0.815,-0.311 0.815,-0.73 V 0 Z" /></g><g
             transform="translate(151.6441,84.5727)"
             id="g258"><path
               inkscape:connector-curvature="0"
               id="path260"
               style="fill:#255299;fill-opacity:1;fill-rule:nonzero;stroke:none"
               d="m 0,0 v 2.175 c 0,0.37 -0.282,0.643 -0.725,0.643 -0.392,0 -0.64,-0.228 -0.74,-0.428 L -1.14,2.175 C -1.299,2.135 -1.465,1.987 -1.465,1.79 V 0 h -0.436 v 1.739 c 0,0.223 0.176,0.363 0.285,0.401 l -0.341,0.22 c 0.125,0.371 0.567,0.76 1.232,0.76 0.663,0 1.163,-0.353 1.163,-0.924 L 0.438,0 Z" /></g><g
             transform="translate(154.4195,84.5317)"
             id="g262"><path
               inkscape:connector-curvature="0"
               id="path264"
               style="fill:#255299;fill-opacity:1;fill-rule:nonzero;stroke:none"
               d="m 0,0 c -0.699,0 -1.206,0.348 -1.185,0.982 h 0.473 c -0.045,-0.395 0.306,-0.664 0.692,-0.664 0.393,0 0.71,0.233 0.71,0.565 0,0.365 -0.353,0.551 -0.784,0.644 -0.53,0.114 -1.003,0.32 -1.003,0.796 0,0.511 0.513,0.838 1.077,0.838 0.576,0 1.04,-0.32 1.082,-0.807 H 0.615 C 0.604,2.641 0.31,2.859 -0.02,2.859 -0.346,2.859 -0.646,2.645 -0.646,2.372 -0.646,2.023 -0.296,1.917 0.2,1.815 0.739,1.698 1.144,1.428 1.144,0.94 1.144,0.324 0.663,0 0,0" /></g><g
             transform="translate(157.8522,84.5317)"
             id="g266"><path
               inkscape:connector-curvature="0"
               id="path268"
               style="fill:#255299;fill-opacity:1;fill-rule:nonzero;stroke:none"
               d="m 0,0 c -0.702,0 -1.205,0.348 -1.187,0.982 h 0.48 c -0.054,-0.395 0.305,-0.664 0.687,-0.664 0.388,0 0.707,0.233 0.707,0.565 0,0.365 -0.357,0.551 -0.783,0.644 -0.532,0.114 -0.998,0.32 -0.998,0.796 0,0.511 0.506,0.838 1.074,0.838 0.579,0 1.033,-0.32 1.08,-0.807 H 0.612 C 0.597,2.641 0.308,2.859 -0.02,2.859 -0.347,2.859 -0.646,2.645 -0.646,2.372 -0.646,2.023 -0.3,1.917 0.196,1.815 0.734,1.698 1.143,1.428 1.143,0.94 1.143,0.324 0.667,0 0,0" /></g><g
             transform="translate(161.5358,84.5317)"
             id="g270"><path
               inkscape:connector-curvature="0"
               id="path272"
               style="fill:#255299;fill-opacity:1;fill-rule:nonzero;stroke:none"
               d="M 0,0 C -0.444,0 -0.753,0.228 -0.925,0.472 V 0.304 c 0,-0.124 -0.038,-0.2 -0.136,-0.263 h -0.518 c 0.132,0.081 0.222,0.171 0.222,0.357 v 2.731 h 0.432 V 1.044 c 0,-0.419 0.481,-0.732 0.818,-0.732 0.369,0 0.651,0.239 0.651,0.638 V 3.129 H 0.977 V 0.883 C 0.977,0.348 0.535,0 0,0" /></g><g
             transform="translate(165.4,84.5727)"
             id="g274"><path
               inkscape:connector-curvature="0"
               id="path276"
               style="fill:#255299;fill-opacity:1;fill-rule:nonzero;stroke:none"
               d="m 0,0 h -0.583 v 3.088 h 0.431 V 0.307 h 0.381 z m -1.02,0 h -0.584 v 3.088 h 0.426 V 0.307 h 0.381 z" /></g><g
             transform="translate(168.5641,84.5727)"
             id="g278"><path
               inkscape:connector-curvature="0"
               id="path280"
               style="fill:#255299;fill-opacity:1;fill-rule:nonzero;stroke:none"
               d="m 0,0 v 2.09 c 0,0.233 -0.05,0.408 -0.225,0.408 -0.155,0 -0.226,-0.146 -0.322,-0.363 L -1.468,0 h -0.437 v 2.731 c 0,0.181 -0.088,0.268 -0.22,0.357 h 0.52 c 0.097,-0.065 0.137,-0.155 0.137,-0.27 V 0.909 l 0.621,1.428 c 0.08,0.2 0.196,0.36 0.396,0.397 H -0.868 V 3.088 H 0.433 V 2.734 H -0.05 C 0.267,2.665 0.433,2.443 0.433,2.114 V 0 Z" /></g><path
             inkscape:connector-curvature="0"
             id="path282"
             style="fill:#255299;fill-opacity:1;fill-rule:nonzero;stroke:none"
             d="m 168.458,88.773 h 0.435 v -0.771 h -0.435 z" /><g
             transform="translate(171.6852,84.5727)"
             id="g284"><path
               inkscape:connector-curvature="0"
               id="path286"
               style="fill:#255299;fill-opacity:1;fill-rule:nonzero;stroke:none"
               d="m 0,0 h -0.9 l -0.679,2.973 0.422,0.115 0.642,-2.781 h 0.358 c 0.461,0 0.614,0.325 0.614,1.317 0,0.98 -0.189,1.15 -0.705,1.15 h -0.255 l 0.216,0.314 h 0.27 C 0.77,3.088 0.898,2.614 0.898,1.644 0.898,0.494 0.651,0 0,0" /></g><g
             transform="translate(174.8649,84.5317)"
             id="g288"><path
               inkscape:connector-curvature="0"
               id="path290"
               style="fill:#255299;fill-opacity:1;fill-rule:nonzero;stroke:none"
               d="m 0,0 c -0.634,0 -1.085,0.312 -1.085,0.854 v 2.275 h 0.434 V 0.883 c 0,-0.411 0.28,-0.571 0.651,-0.571 0.369,0 0.641,0.16 0.641,0.571 v 0.811 c 0,0.297 -0.263,0.505 -0.673,0.505 h -0.276 v 0.307 h 0.276 c 0.386,0 0.673,0.149 0.673,0.426 V 3.129 H 1.074 V 2.91 C 1.074,2.567 0.772,2.393 0.36,2.354 0.795,2.354 1.074,2.088 1.074,1.753 V 0.854 C 1.074,0.312 0.632,0 0,0" /></g><g
             transform="translate(178.651,84.5727)"
             id="g292"><path
               inkscape:connector-curvature="0"
               id="path294"
               style="fill:#255299;fill-opacity:1;fill-rule:nonzero;stroke:none"
               d="m 0,0 v 2.122 c 0,0.423 -0.173,0.696 -0.596,0.696 -0.368,0 -0.599,-0.261 -0.599,-0.505 h -0.44 c 0.032,0.402 0.412,0.807 1.032,0.807 0.679,0 1.039,-0.333 1.039,-0.931 L 0.436,0 Z" /></g><g
             transform="translate(182.3111,84.5727)"
             id="g296"><path
               inkscape:connector-curvature="0"
               id="path298"
               style="fill:#255299;fill-opacity:1;fill-rule:nonzero;stroke:none"
               d="m 0,0 v 2.323 c 0,0.246 -0.132,0.396 -0.252,0.429 -0.09,-0.172 -0.265,-0.3 -0.529,-0.3 -0.259,0 -0.441,0.128 -0.528,0.3 -0.119,-0.033 -0.25,-0.183 -0.25,-0.429 V 0.67 l 0.762,1.136 h -0.469 l 0.133,0.308 h 0.791 V 1.806 L -1.559,0 h -0.432 v 2.39 c 0,0.419 0.32,0.73 0.817,0.73 0,-0.151 0.148,-0.327 0.393,-0.327 0.248,0 0.395,0.176 0.395,0.327 0.5,0 0.814,-0.311 0.814,-0.73 V 0 Z" /></g><path
             inkscape:connector-curvature="0"
             id="path300"
             style="fill:#255299;fill-opacity:1;fill-rule:nonzero;stroke:none"
             d="m 180.523,88.306 h 2.202 v -0.305 h -2.202 z" /><g
             transform="translate(154.9723,115.3013)"
             id="g302"><path
               inkscape:connector-curvature="0"
               id="path304"
               style="fill:#ea1f29;fill-opacity:1;fill-rule:nonzero;stroke:none"
               d="M 0,0 C 0,-2.531 2.027,-4.574 4.517,-4.574 V -4.612 C 2.027,-4.612 0,-6.667 0,-9.204 l -0.036,-0.002 c 0,2.532 -2.022,4.581 -4.524,4.581 v 0.035 c 2.502,0 4.524,2.059 4.524,4.587 z" /></g><g
             transform="translate(149.5338,103.8725)"
             id="g306"><path
               inkscape:connector-curvature="0"
               id="path308"
               style="fill:#255299;fill-opacity:1;fill-rule:nonzero;stroke:none"
               d="m 0,0 -0.29,-1.259 c 0,0 5.039,2.011 2.908,-1.688 -2.135,-3.7 -4.163,-6.913 -4.163,-6.913 0,0 -2.967,-4.678 5.632,-2.327 l 4.03,1.338 0.343,1.305 c 0,0 -6.578,-2.359 -3.91,1.773 l 4.22,7.149 c 0,0 1.9,2.825 -1.779,2.236 C 2.98,0.984 0,0 0,0" /></g></g></g></g></g></svg>